<?xml version="1.0" standalone="no"?>
<!DOCTYPE svg PUBLIC "-//W3C//DTD SVG 20010904//EN"
 "http://www.w3.org/TR/2001/REC-SVG-20010904/DTD/svg10.dtd">
<svg version="1.0" xmlns="http://www.w3.org/2000/svg"
 width="8000.000000pt" height="8000.000000pt" viewBox="0 0 8000.000000 8000.000000"
 preserveAspectRatio="xMidYMid meet">

<g transform="translate(0.000000,8000.000000) scale(0.100000,-0.100000)"
fill="#000000" stroke="none">
<path d="M20800 70893 c-747 -96 -1337 -692 -1420 -1433 -8 -79 -10 -1244 -8
-4705 l3 -4600 23 -100 c110 -482 388 -864 802 -1101 159 -91 386 -167 580
-194 125 -18 360 -13 491 9 503 86 944 410 1173 861 100 198 155 386 176 605
14 153 14 9027 0 9179 -21 217 -79 417 -177 608 -78 154 -161 266 -298 404
-228 229 -496 374 -820 444 -79 18 -141 23 -295 25 -107 2 -211 1 -230 -2z"/>
<path d="M33415 70885 c-677 -109 -1201 -612 -1347 -1291 l-23 -109 0 -4660
c0 -4473 1 -4664 18 -4750 102 -500 404 -909 847 -1143 383 -203 858 -241
1273 -102 548 184 956 642 1077 1212 11 51 25 167 31 258 6 111 9 1637 6 4650
-3 4022 -5 4494 -19 4570 -69 374 -212 655 -463 905 -133 133 -260 225 -420
304 -135 67 -259 111 -402 142 -130 28 -444 35 -578 14z"/>
<path d="M46086 70885 c-351 -57 -652 -211 -901 -460 -251 -250 -394 -531
-463 -905 -14 -76 -16 -548 -19 -4570 -3 -3013 0 -4539 6 -4650 6 -91 20 -207
31 -258 121 -570 529 -1028 1077 -1212 415 -138 890 -100 1273 102 443 234
745 643 847 1143 17 86 18 277 18 4750 l0 4660 -23 109 c-140 651 -623 1137
-1270 1277 -129 28 -444 35 -576 14z"/>
<path d="M58735 70881 c-261 -48 -436 -119 -651 -262 -131 -88 -319 -271 -411
-402 -162 -230 -265 -513 -293 -803 -14 -152 -14 -9026 0 -9179 45 -473 280
-891 659 -1174 188 -140 449 -251 690 -292 131 -22 366 -27 491 -9 357 49 681
211 935 466 222 222 372 501 447 829 l23 100 3 4600 c2 3461 0 4626 -8 4705
-78 693 -596 1261 -1288 1411 -142 31 -458 36 -597 10z"/>
<path d="M13473 64884 c-360 -43 -758 -188 -1058 -384 -626 -410 -1021 -1049
-1117 -1810 -11 -86 -13 -1017 -13 -5130 0 -4770 1 -5032 18 -5156 87 -635
374 -1169 852 -1581 250 -216 532 -373 856 -478 232 -74 392 -101 732 -121
l97 -6 0 -18949 c0 -16999 2 -18965 15 -19096 107 -1016 660 -1929 1516 -2501
459 -307 990 -497 1554 -557 123 -13 2864 -15 23075 -15 20211 0 22952 2
23075 15 978 104 1839 597 2424 1388 354 478 583 1069 646 1670 13 131 15
2097 15 19096 l0 18949 98 6 c339 20 499 47 731 121 450 145 817 389 1128 750
316 366 512 808 580 1309 17 124 18 386 18 5156 0 4113 -2 5044 -13 5130 -74
582 -316 1085 -717 1485 -390 391 -917 645 -1471 710 -112 13 -463 15 -2641
15 l-2513 0 0 -1785 0 -1784 69 -87 c75 -93 193 -266 258 -379 487 -841 541
-1893 144 -2789 -159 -359 -354 -641 -645 -932 -237 -236 -435 -386 -717 -540
-784 -428 -1760 -487 -2594 -157 -1019 403 -1743 1296 -1924 2373 -48 287 -53
665 -11 945 82 549 293 1042 626 1467 l84 107 0 1780 0 1781 -3980 0 -3980 0
0 -1783 0 -1783 71 -90 c174 -217 380 -582 474 -837 298 -812 247 -1711 -139
-2472 -369 -726 -992 -1269 -1763 -1535 -485 -168 -1045 -209 -1563 -114
-1170 214 -2128 1105 -2430 2259 -70 269 -95 477 -94 790 0 266 12 387 59 620
93 460 303 911 599 1285 l76 95 0 1783 0 1782 -3980 0 -3980 0 0 -1782 0
-1783 76 -95 c349 -441 560 -945 640 -1530 22 -155 25 -575 6 -725 -51 -402
-147 -719 -317 -1055 -558 -1096 -1707 -1760 -2927 -1690 -924 53 -1755 498
-2308 1235 -629 840 -789 1939 -425 2932 94 255 300 620 474 837 l71 90 0
1783 0 1783 -3980 0 -3980 0 0 -1781 0 -1780 84 -107 c409 -521 633 -1144 653
-1812 14 -477 -71 -916 -258 -1338 -523 -1181 -1724 -1919 -3000 -1842 -545
33 -1021 184 -1480 470 -362 226 -743 607 -969 969 -434 697 -576 1510 -404
2311 96 448 311 901 595 1254 l69 87 0 1784 0 1785 -2527 -1 c-2067 -1 -2549
-4 -2640 -15z m50764 -33616 l-2 -18953 -22 -92 c-73 -305 -207 -548 -417
-758 -242 -241 -539 -389 -869 -434 -110 -15 -45743 -15 -45854 0 -327 44
-628 195 -869 434 -210 210 -344 453 -417 758 l-22 92 -2 18953 -3 18952
24240 0 24240 0 -3 -18952z"/>
<path d="M18870 48494 c-171 -17 -326 -61 -463 -132 -322 -165 -538 -454 -624
-832 -16 -69 -17 -276 -21 -2695 -2 -1777 0 -2655 8 -2730 32 -344 203 -649
476 -852 104 -76 198 -125 327 -168 208 -70 -93 -65 4024 -65 2552 0 3746 3
3800 11 512 69 901 428 1017 939 l21 95 0 2690 c0 2564 -1 2694 -18 2775 -52
240 -148 427 -306 593 -171 180 -366 289 -626 350 l-90 22 -3745 1 c-2060 0
-3761 -1 -3780 -2z"/>
<path d="M30470 48494 c-315 -31 -575 -154 -780 -370 -180 -190 -289 -427
-319 -697 -15 -131 -15 -5214 -1 -5342 40 -342 205 -631 478 -833 149 -111
339 -188 529 -217 148 -22 7498 -22 7646 0 539 81 946 505 1007 1050 14 124
14 5227 0 5350 -15 130 -54 265 -110 384 -164 342 -457 569 -850 658 -70 16
-335 17 -3820 19 -2060 0 -3761 -1 -3780 -2z"/>
<path d="M42070 48494 c-171 -17 -326 -61 -464 -132 -351 -180 -591 -529 -636
-927 -14 -123 -14 -5226 0 -5350 53 -471 358 -851 802 -1000 209 -70 -93 -65
4028 -65 4120 0 3819 -5 4027 65 444 149 748 528 803 1000 13 118 14 5212 0
5340 -28 264 -140 510 -320 699 -170 179 -377 293 -640 353 -70 16 -335 17
-3820 19 -2060 0 -3761 -1 -3780 -2z"/>
<path d="M53660 48493 c-290 -23 -568 -157 -771 -370 -158 -166 -254 -353
-306 -593 -17 -81 -18 -211 -18 -2775 l0 -2690 21 -95 c46 -199 119 -354 243
-511 184 -231 465 -387 774 -428 54 -8 1248 -11 3800 -11 4117 0 3816 -5 4024
65 129 43 223 92 327 168 273 203 444 508 476 852 8 75 10 953 8 2730 -4 2419
-5 2626 -21 2695 -58 257 -172 466 -343 631 -168 161 -357 260 -604 316 -70
16 -335 17 -3820 18 -2060 1 -3765 0 -3790 -2z"/>
<path d="M18751 39054 c-46 -8 -123 -27 -172 -44 -455 -152 -764 -543 -809
-1025 -8 -75 -10 -953 -8 -2730 l4 -2620 21 -90 c58 -249 158 -432 327 -600
152 -152 329 -254 543 -313 l98 -27 3845 0 3845 0 98 27 c495 137 837 537 888
1038 7 72 9 930 7 2740 l-4 2635 -21 85 c-62 249 -162 430 -328 595 -178 178
-423 300 -669 334 -54 8 -1208 11 -3829 10 -3169 -1 -3765 -3 -3836 -15z"/>
<path d="M30351 39054 c-239 -40 -470 -161 -647 -339 -163 -165 -272 -373
-321 -612 -17 -83 -18 -234 -18 -2763 0 -2913 -4 -2728 57 -2920 59 -185 152
-336 292 -475 153 -152 330 -254 543 -313 l98 -27 3845 0 3845 0 98 27 c456
126 771 460 873 928 18 82 19 187 19 2770 0 2539 -1 2690 -18 2773 -49 242
-159 449 -327 617 -182 182 -425 305 -674 339 -54 8 -1208 11 -3829 10 -3169
-1 -3765 -3 -3836 -15z"/>
<path d="M41975 39059 c-160 -23 -359 -103 -502 -201 -148 -101 -305 -281
-386 -443 -38 -77 -84 -215 -104 -312 -17 -83 -18 -234 -18 -2773 0 -2583 1
-2688 19 -2770 102 -468 417 -802 873 -928 l98 -27 3845 0 3845 0 98 27 c404
111 713 403 835 788 61 192 57 7 57 2920 0 2529 -1 2680 -18 2763 -49 239
-158 447 -321 612 -136 136 -292 234 -474 295 -192 64 98 60 -4032 59 -2065
-1 -3782 -5 -3815 -10z"/>
<path d="M53575 39059 c-236 -34 -486 -160 -660 -334 -166 -165 -266 -346
-328 -595 l-21 -85 -4 -2635 c-2 -1810 0 -2668 7 -2740 15 -146 52 -276 116
-406 153 -315 423 -536 772 -632 l98 -27 3845 0 3845 0 98 27 c214 59 391 161
543 313 173 173 281 375 331 622 17 83 18 234 18 2763 0 2867 3 2712 -51 2896
-124 429 -497 756 -944 829 -84 13 -517 15 -3850 14 -2065 -1 -3782 -5 -3815
-10z"/>
<path d="M18855 29643 c-539 -49 -963 -433 -1072 -971 -17 -82 -18 -240 -18
-2767 0 -2554 1 -2684 18 -2765 105 -492 450 -840 937 -946 82 -18 217 -19
3880 -19 3604 0 3799 1 3878 18 525 113 892 516 952 1043 8 71 10 841 8 2739
-3 2498 -5 2644 -22 2715 -59 249 -151 422 -310 588 -109 113 -189 172 -331
243 -133 66 -256 101 -408 118 -67 8 -1215 10 -3784 9 -2028 -1 -3706 -3
-3728 -5z"/>
<path d="M30420 29639 c-185 -21 -404 -104 -549 -206 -279 -198 -465 -514
-501 -853 -14 -132 -13 -5223 0 -5345 22 -193 88 -375 193 -533 176 -263 439
-440 758 -509 80 -17 261 -18 3879 -18 3604 0 3799 1 3878 18 321 69 582 244
757 507 72 108 114 195 149 313 54 177 51 28 51 2902 0 2554 -1 2684 -18 2765
-52 243 -149 429 -311 598 -109 113 -189 172 -331 243 -133 66 -256 101 -408
118 -118 13 -7432 13 -7547 0z"/>
<path d="M42018 29639 c-181 -21 -390 -98 -539 -200 -81 -55 -216 -185 -280
-269 -69 -90 -163 -285 -194 -400 -14 -52 -30 -142 -36 -200 -7 -72 -9 -928
-7 -2735 4 -2388 5 -2636 20 -2700 43 -182 91 -298 183 -435 175 -263 436
-438 757 -507 79 -17 274 -18 3878 -18 3618 0 3799 1 3879 18 519 112 892 520
951 1042 13 122 14 5213 0 5345 -59 561 -496 996 -1063 1059 -119 14 -7432 13
-7549 0z"/>
<path d="M53618 29639 c-134 -16 -265 -55 -393 -118 -142 -71 -222 -130 -331
-243 -159 -166 -251 -340 -310 -588 -17 -71 -19 -218 -22 -2715 -2 -1900 0
-2668 8 -2739 39 -343 204 -631 478 -834 135 -100 294 -170 474 -209 79 -17
274 -18 3878 -18 3663 0 3798 1 3880 19 487 106 831 454 937 946 17 81 18 211
18 2765 0 2527 -1 2685 -18 2767 -52 259 -170 475 -353 648 -161 153 -340 247
-579 303 l-90 22 -3750 1 c-2119 1 -3783 -2 -3827 -7z"/>
<path d="M18749 20204 c-445 -80 -805 -398 -933 -824 -54 -180 -51 -25 -51
-2905 l0 -2680 21 -95 c105 -462 415 -789 872 -918 l97 -27 3845 0 3845 0 95
26 c460 128 776 464 877 931 17 79 18 228 18 2773 0 2589 -1 2693 -19 2775
-55 253 -161 449 -336 621 -174 172 -389 281 -637 324 -75 13 -556 15 -3852
14 -3145 -1 -3778 -3 -3842 -15z"/>
<path d="M30349 20204 c-268 -48 -527 -195 -698 -395 -163 -192 -255 -410
-281 -667 -8 -75 -10 -900 -8 -2732 l4 -2625 21 -90 c109 -462 416 -784 871
-913 l97 -27 3845 0 3845 0 95 26 c408 114 715 403 838 789 61 192 57 7 57
2920 0 2529 -1 2680 -18 2763 -50 245 -160 452 -332 622 -178 177 -391 286
-642 330 -75 13 -556 15 -3852 14 -3145 -1 -3778 -3 -3842 -15z"/>
<path d="M41949 20204 c-245 -44 -459 -155 -634 -329 -172 -170 -282 -377
-332 -622 -17 -83 -18 -234 -18 -2763 0 -2913 -4 -2728 57 -2920 59 -185 152
-336 292 -475 153 -153 329 -253 546 -314 l95 -26 3845 0 3845 0 97 27 c275
78 493 224 653 437 107 141 174 288 218 476 l21 90 4 2625 c2 1832 0 2657 -8
2732 -55 546 -448 969 -987 1063 -75 13 -556 15 -3852 14 -3145 -1 -3778 -3
-3842 -15z"/>
</g>
</svg>
